<?xml version="1.0" standalone="no"?>
<!DOCTYPE svg PUBLIC "-//W3C//DTD SVG 20010904//EN"
 "http://www.w3.org/TR/2001/REC-SVG-20010904/DTD/svg10.dtd">
<svg version="1.0" xmlns="http://www.w3.org/2000/svg"
 width="662.000000pt" height="437.000000pt" viewBox="0 0 662.000000 437.000000"
 preserveAspectRatio="xMidYMid meet">

<g transform="translate(0.000000,437.000000) scale(0.100000,-0.100000)"
fill="#000000" stroke="none">
<path d="M1920 2495 l0 -178 63 59 c34 32 115 109 180 171 l118 113 -89 0
c-49 0 -130 3 -180 6 l-92 7 0 -178z"/>
<path d="M1721 2471 c-88 -93 -161 -171 -161 -175 0 -3 74 -6 165 -6 l165 0 0
175 c0 96 -2 175 -4 175 -2 0 -76 -76 -165 -169z"/>
<path d="M2205 2548 c-47 -48 -48 -50 -15 -30 19 11 54 31 78 45 40 23 42 25
20 31 -13 3 -25 6 -28 6 -3 0 -28 -23 -55 -52z"/>
<path d="M1350 2425 l0 -135 84 0 84 0 36 41 35 42 -31 36 c-115 133 -136 151
-172 151 l-36 0 0 -135z"/>
<path d="M1278 2505 l-38 -35 40 0 c39 0 40 1 40 35 0 19 -1 35 -2 35 -2 0
-20 -16 -40 -35z"/>
<path d="M2470 2537 c0 -2 15 -16 32 -33 18 -16 25 -20 15 -8 -9 11 -17 24
-17 28 0 4 46 5 103 4 99 -3 102 -4 101 -25 0 -13 3 -23 8 -23 4 0 8 14 8 30
l0 30 -125 0 c-69 0 -125 -1 -125 -3z"/>
<path d="M2750 2532 c0 -5 9 -20 21 -33 19 -23 20 -23 10 -2 -6 12 -11 24 -11
27 0 3 35 6 78 6 95 0 139 -19 165 -72 25 -50 15 -93 -30 -135 l-35 -32 31
-54 c37 -64 37 -67 11 -67 -13 0 -31 21 -60 69 -58 101 -58 101 -18 101 44 0
68 26 68 72 0 39 -25 68 -56 67 -15 0 -14 -2 6 -10 30 -12 40 -26 40 -60 0
-35 -29 -59 -73 -59 -20 0 -37 -3 -37 -6 0 -3 23 -46 52 -95 49 -83 54 -89 85
-89 18 0 33 3 33 6 0 3 -16 33 -35 65 l-35 60 30 25 c16 14 35 43 41 64 10 32
9 44 -7 76 -32 65 -61 79 -175 82 -60 3 -99 0 -99 -6z"/>
<path d="M3100 2537 c0 -2 15 -16 32 -33 18 -16 25 -20 15 -8 -9 11 -17 24
-17 28 0 4 47 6 105 4 58 -2 105 0 105 5 0 4 -54 7 -120 7 -66 0 -120 -1 -120
-3z"/>
<path d="M3490 2533 c-41 -13 -61 -29 -75 -60 -23 -47 -13 -95 26 -127 26 -23
40 -26 100 -26 39 0 79 -5 90 -10 26 -14 26 -66 -1 -82 -26 -17 -28 -68 -2
-68 48 0 97 73 86 129 -13 63 -61 91 -159 91 -57 0 -66 3 -80 24 -13 19 -14
29 -5 45 6 12 17 21 25 21 10 0 15 11 15 35 0 19 -1 35 -2 34 -2 0 -10 -3 -18
-6z m10 -32 c0 -10 -7 -21 -15 -25 -8 -3 -20 -17 -27 -30 -9 -20 -8 -30 6 -51
15 -23 23 -25 87 -25 44 0 81 -6 100 -16 36 -18 62 -73 53 -109 -6 -25 -56
-75 -75 -75 -17 0 -9 39 11 50 14 7 20 21 20 45 0 49 -28 65 -113 65 -80 0
-111 16 -127 66 -9 27 -9 42 0 65 21 50 80 80 80 40z"/>
<path d="M4030 2460 l0 -80 -98 0 c-98 0 -98 0 -130 -33 -30 -31 -32 -37 -32
-110 l0 -77 33 1 c30 2 30 2 5 6 -27 4 -28 6 -28 72 0 63 2 69 33 99 32 32 34
32 130 32 l97 0 0 81 c0 71 2 80 18 77 15 -3 17 -21 20 -181 2 -172 2 -177
-18 -177 -18 0 -20 6 -20 80 l0 80 -105 0 c-58 0 -105 -3 -105 -7 0 -5 44 -8
97 -8 l98 0 3 -77 3 -78 29 0 30 0 0 190 0 190 -30 0 -30 0 0 -80z"/>
<path d="M4374 2526 c-43 -19 -64 -53 -64 -104 0 -35 6 -49 29 -73 27 -27 35
-29 105 -29 63 0 80 -4 96 -20 27 -27 25 -44 -5 -68 -15 -12 -25 -30 -25 -46
0 -38 34 -34 76 8 38 38 44 77 19 126 -22 43 -63 60 -143 60 -39 0 -73 5 -80
12 -19 19 -14 55 10 72 12 9 20 18 17 21 -12 12 -49 -28 -49 -53 0 -49 13 -56
106 -63 82 -5 89 -7 115 -37 31 -35 36 -66 17 -107 -10 -22 -53 -55 -73 -55
-14 0 -2 35 20 56 30 28 32 57 5 84 -16 16 -33 20 -96 20 -70 0 -78 2 -105 29
-40 41 -41 96 -1 134 15 15 36 27 45 27 9 0 17 5 17 10 0 12 2 12 -36 -4z"/>
<path d="M4680 2350 l0 -190 30 0 30 0 -2 163 -2 162 -3 -157 c-3 -150 -5
-158 -23 -158 -19 0 -20 7 -20 180 l0 181 83 -3 c78 -3 82 -4 81 -25 0 -13 3
-23 8 -23 4 0 8 14 8 30 l0 30 -95 0 -95 0 0 -190z"/>
<path d="M5080 2535 c0 -14 25 -55 34 -55 6 0 5 5 -2 12 -7 7 -12 18 -12 26 0
12 16 14 88 10 49 -2 96 -10 108 -18 32 -20 54 -63 54 -106 0 -30 -7 -44 -39
-74 l-38 -37 33 -57 c19 -31 34 -59 34 -61 0 -3 -10 -5 -22 -5 -18 0 -32 16
-63 73 -52 94 -53 97 -16 97 18 0 40 9 51 20 40 40 14 121 -38 119 -21 -1 -22
-2 -7 -6 52 -13 73 -73 37 -106 -10 -10 -35 -17 -55 -17 -20 0 -37 -3 -37 -7
0 -5 22 -46 49 -93 46 -81 50 -85 86 -88 l37 -3 -36 64 -36 65 35 37 c30 31
35 43 35 85 0 59 -33 104 -88 120 -36 10 -192 14 -192 5z"/>
<path d="M5420 2350 l0 -190 30 0 29 0 3 160 c2 88 0 160 -4 160 -5 0 -8 -70
-8 -155 0 -149 -1 -155 -20 -155 -20 0 -20 5 -18 178 l3 177 80 0 c77 0 80 -1
79 -22 0 -13 3 -23 8 -23 4 0 8 14 8 30 l0 30 -95 0 -95 0 0 -190z"/>
<path d="M4892 2345 l-92 -185 35 0 c35 0 36 1 92 115 32 63 60 115 64 115 3
0 16 -22 29 -50 13 -27 27 -50 30 -50 4 0 -7 27 -24 60 -17 33 -33 60 -36 60
-3 0 -32 -54 -65 -120 -50 -101 -63 -120 -82 -120 -21 0 -18 11 59 165 46 91
85 165 89 165 3 0 28 -47 55 -105 27 -57 52 -104 57 -105 4 0 -20 54 -53 120
-33 66 -61 120 -63 120 -1 0 -44 -83 -95 -185z"/>
<path d="M3090 2350 l0 -30 128 2 127 2 -123 3 c-110 3 -123 5 -120 21 3 15
18 17 121 17 64 0 117 3 117 8 0 4 -56 7 -125 7 l-125 0 0 -30z"/>
<path d="M2470 2343 c0 -5 53 -8 117 -8 116 0 118 0 117 -22 0 -13 3 -23 8
-23 4 0 8 14 8 30 l0 30 -125 0 c-69 0 -125 -3 -125 -7z"/>
<path d="M2520 2231 c0 -57 -1 -60 -27 -64 -26 -4 -26 -4 5 -6 l32 -1 0 65 c0
36 -2 65 -5 65 -3 0 -5 -27 -5 -59z"/>
<path d="M1541 2078 c95 -101 178 -189 184 -196 12 -14 16 -6 116 271 l38 107
-255 0 -256 0 173 -182z"/>
<path d="M3125 2190 l-29 -30 125 2 124 2 -115 5 c-112 6 -114 6 -88 23 18 12
52 18 115 21 l88 3 -96 2 c-94 2 -96 2 -124 -28z"/>
<path d="M5095 2190 c12 -23 22 -30 45 -30 34 0 34 0 18 35 -9 19 -19 25 -45
25 l-34 0 16 -30z m55 0 c9 -18 8 -20 -15 -20 -14 0 -25 2 -25 4 0 2 -3 11 -6
20 -9 24 33 20 46 -4z"/>
<path d="M1805 1972 c-44 -119 -80 -221 -80 -225 0 -4 37 -28 83 -52 l82 -45
0 270 c0 148 -1 270 -2 270 -2 0 -39 -98 -83 -218z"/>
<path d="M2490 1910 c0 -5 14 -10 31 -10 l30 0 -3 -52 c-3 -59 -24 -74 -59
-42 -15 14 -19 14 -19 3 0 -37 55 -52 84 -23 11 10 16 34 16 75 l0 59 -40 0
c-22 0 -40 -4 -40 -10z"/>
<path d="M2631 1894 c-12 -15 -21 -38 -21 -51 0 -32 42 -73 75 -73 33 0 75 42
75 75 0 14 -11 37 -25 50 -33 34 -77 33 -104 -1z m93 -10 c33 -32 7 -94 -40
-94 -45 0 -67 47 -44 91 13 23 62 26 84 3z"/>
<path d="M2800 1846 l0 -76 31 0 c17 0 39 5 50 10 18 10 26 50 12 64 -4 3 -7
21 -7 39 -1 30 -3 32 -43 35 l-43 3 0 -75z m75 34 c0 -9 -11 -16 -27 -18 -23
-3 -28 1 -28 18 0 17 5 21 28 18 16 -2 27 -9 27 -18z m0 -65 c0 -14 -8 -21
-27 -23 -24 -3 -28 0 -28 23 0 23 4 26 28 23 19 -2 27 -9 27 -23z"/>
<path d="M3052 1897 c-12 -13 -22 -36 -22 -51 0 -34 41 -76 75 -76 33 0 75 42
75 75 0 35 -42 75 -78 75 -17 0 -37 -9 -50 -23z m90 -14 c35 -31 10 -93 -38
-93 -45 0 -67 47 -44 91 13 24 57 25 82 2z"/>
<path d="M3220 1845 c0 -43 4 -75 10 -75 6 0 10 14 10 30 0 27 3 30 33 30 38
0 57 15 57 45 0 32 -20 45 -67 45 l-43 0 0 -75z m88 31 c5 -22 -13 -36 -45
-36 -19 0 -23 5 -23 31 0 28 2 30 32 27 23 -2 34 -9 36 -22z"/>
<path d="M3370 1844 c0 -47 4 -73 10 -69 6 3 10 17 10 30 0 20 6 24 38 27 34
3 37 6 40 37 4 40 -9 51 -60 51 l-38 0 0 -76z m84 39 c8 -20 -17 -43 -46 -43
-13 0 -18 8 -18 30 0 26 3 30 29 30 18 0 31 -6 35 -17z"/>
<path d="M3531 1894 c-12 -15 -21 -38 -21 -51 0 -32 42 -73 75 -73 33 0 75 42
75 75 0 14 -11 37 -25 50 -33 34 -77 33 -104 -1z m93 -10 c33 -32 7 -94 -40
-94 -45 0 -67 47 -44 91 13 23 62 26 84 3z"/>
<path d="M3700 1845 c0 -43 4 -75 10 -75 6 0 10 14 10 30 0 42 34 41 56 -2 10
-18 19 -28 21 -21 2 7 0 21 -6 31 -8 15 -7 23 4 32 18 15 20 51 3 68 -7 7 -31
12 -55 12 l-43 0 0 -75z m88 31 c5 -22 -13 -36 -45 -36 -19 0 -23 5 -23 31 0
28 2 30 32 27 23 -2 34 -9 36 -22z"/>
<path d="M3840 1910 c0 -5 11 -10 25 -10 24 0 25 -2 25 -65 0 -37 4 -65 10
-65 6 0 10 28 10 65 0 58 2 65 20 65 11 0 20 5 20 10 0 6 -25 10 -55 10 -30 0
-55 -4 -55 -10z"/>
<path d="M3990 1861 c0 -68 15 -91 60 -91 40 0 60 32 60 97 0 29 -4 53 -10 53
-5 0 -10 -24 -10 -54 0 -59 -14 -80 -52 -74 -21 3 -23 9 -26 66 -4 79 -22 82
-22 3z"/>
<path d="M4150 1846 c0 -89 18 -103 22 -18 l3 57 33 -57 c18 -32 37 -58 42
-58 6 0 10 32 10 75 0 43 -4 75 -10 75 -6 0 -10 -26 -10 -57 l0 -58 -33 54
c-47 79 -57 77 -57 -13z"/>
<path d="M4310 1910 c0 -5 9 -10 20 -10 18 0 20 -7 20 -55 0 -48 -2 -55 -20
-55 -11 0 -20 -4 -20 -10 0 -5 23 -10 50 -10 28 0 50 5 50 10 0 6 -9 10 -20
10 -18 0 -20 7 -20 55 0 48 2 55 20 55 11 0 20 5 20 10 0 6 -22 10 -50 10 -27
0 -50 -4 -50 -10z"/>
<path d="M4445 1910 c3 -5 15 -10 26 -10 17 0 19 -7 19 -65 0 -37 4 -65 10
-65 6 0 10 28 10 65 0 63 1 65 25 65 14 0 25 5 25 10 0 6 -27 10 -61 10 -37 0
-58 -4 -54 -10z"/>
<path d="M4590 1910 c0 -5 11 -10 25 -10 24 0 25 -3 25 -55 0 -52 -1 -55 -25
-55 -14 0 -25 -4 -25 -10 0 -5 25 -10 55 -10 30 0 55 5 55 10 0 6 -11 10 -25
10 -24 0 -25 3 -25 55 0 52 1 55 25 55 14 0 25 5 25 10 0 6 -25 10 -55 10 -30
0 -55 -4 -55 -10z"/>
<path d="M4740 1845 l0 -75 50 0 c28 0 50 5 50 10 0 6 -18 10 -40 10 -36 0
-40 3 -40 25 0 22 4 25 35 25 19 0 35 5 35 10 0 6 -16 10 -35 10 -28 0 -35 4
-35 20 0 17 7 20 40 20 22 0 40 5 40 10 0 6 -22 10 -50 10 l-50 0 0 -75z"/>
<path d="M4893 1914 c-7 -3 -13 -16 -13 -29 0 -26 14 -40 53 -49 20 -5 27 -12
25 -24 -4 -21 -44 -28 -64 -11 -21 17 -28 5 -8 -15 21 -21 73 -17 88 7 15 24
-3 49 -43 61 -19 6 -31 15 -31 26 0 25 24 31 50 13 20 -14 22 -14 18 3 -3 19
-48 29 -75 18z"/>
</g>
</svg>
